<?xml version="1.0" encoding="UTF-8"?>
<svg id="Camada_2" data-name="Camada 2" xmlns="http://www.w3.org/2000/svg" viewBox="0 0 205.06 177.62">
  <defs>
    <style>
      .cls-1 {
        fill: #fbf7ef;
      }
    </style>
  </defs>
  <g id="Camada_1-2" data-name="Camada 1">
    <path class="cls-1" d="M109.73,88.68l38.8,14.36c.21.08.21.38,0,.46l-38.8,14.36c-9.63,3.57-17.23,11.16-20.8,20.8l-14.36,38.8c-.08.21-.38.21-.46,0l-14.36-38.8c-3.57-9.63-11.16-17.23-20.8-20.8L.16,103.5c-.21-.08-.21-.38,0-.46l38.8-14.36c9.63-3.57,17.23-11.16,20.8-20.8l14.36-38.8c.08-.21.38-.21.46,0l14.36,38.8c3.57,9.63,11.16,17.23,20.8,20.8Z"/>
    <path class="cls-1" d="M186.78,27.55l18.26,2.25s.01.02,0,.02l-18.26,2.25c-4.85.6-8.68,4.42-9.27,9.27l-2.25,18.26s-.02.01-.02,0l-2.25-18.26c-.6-4.85-4.42-8.68-9.27-9.27l-18.26-2.25s-.01-.02,0-.02l18.26-2.25c4.85-.6,8.68-4.42,9.27-9.27L175.24.01s.02-.01.02,0l2.25,18.26c.6,4.85,4.42,8.68,9.27,9.27Z"/>
  </g>
</svg>