<?xml version="1.0" encoding="UTF-8"?>
<svg id="Camada_2" data-name="Camada 2" xmlns="http://www.w3.org/2000/svg" viewBox="0 0 464.26 601.14">
  <defs>
    <style>
      .cls-1 {
        fill: #3cb02a;
      }

      .cls-2 {
        fill: #40b134;
      }

      .cls-3, .cls-4 {
        fill: #f6f9fc;
      }

      .cls-5 {
        letter-spacing: 0em;
      }

      .cls-6 {
        fill: #032b53;
      }

      .cls-7 {
        fill: #4ab90b;
      }

      .cls-8 {
        letter-spacing: -.03em;
      }

      .cls-9 {
        fill: #1e9973;
      }

      .cls-10 {
        fill: #0077d5;
      }

      .cls-11 {
        fill: #017ad2;
      }

      .cls-12 {
        fill: #f9d406;
      }

      .cls-13 {
        fill: #fcd707;
      }

      .cls-4 {
        font-family: Manrope-ExtraBold, Manrope;
        font-size: 127.23px;
        font-weight: 700;
      }

      .cls-14 {
        fill: #f8d507;
      }

      .cls-15 {
        fill: #fad606;
      }

      .cls-16 {
        fill: #31a44f;
      }

      .cls-17 {
        fill: #0079d5;
      }

      .cls-18 {
        fill: #47b60b;
      }

      .cls-19 {
        fill: #4bb90c;
      }

      .cls-20 {
        fill: #0486ab;
      }

      .cls-21 {
        fill: #46b60b;
      }
    </style>
  </defs>
  <g id="Layer_1" data-name="Layer 1">
    <path class="cls-6" d="M201.82,558.96c4.97,2.35,10.09,4.43,14.87,7.12,6.55,3.68,12.84,7.82,19.64,11.79,1.56.96,2.72,1.89,4.23,3.1v-111.27c-7.35,0-14.58,0-21.97-.1-5.83-.62-11.48-1.14-17.45-1.69,0,1.07,0,2.1,0,3.12-.1,9.07-.21,18.14-.49,27.16-56.79-27.32-99.85-67.7-123.21-127.3,3.44,11.1,6.97,22.07,11.42,32.66,12.52,29.82,32.58,54.15,57.13,74.68,13.75,11.5,28.65,21.63,43.16,32.22,3.67,2.68,7.8,4.74,11.8,7.35.11,1.31.16,2.36.16,3.41-.02,8.95-.05,17.91-.08,26.86-29.49-18.58-60.83-34.22-88.47-55.76-29.45-22.96-52.05-51.06-65.35-86.22-8.33-22.02-13.34-44.85-13.96-68.31-.86-32.5-.68-65.04-.8-97.56-.07-19.42.12-38.84-2.13-58.18-2.88-24.69-10.2-47.78-24.51-68.37-.93-1.33-1.91-2.63-2.87-3.94-.94-1.28-1.89-2.56-2.93-3.96,7.27-1.41,14.31-2.55,21.25-4.15,25.83-5.96,49.92-16.16,72.37-30.22,15.15-9.48,30.08-19.32,45.35-28.59,19.5-11.83,40.6-20.03,62.7-26.08.26,4.51.28,8.76.23,13.25-.08,4.62-.1,9-.34,13.39-18.29,5.05-35.6,12.01-52.06,21.02-3.16,1.73-6.13,3.8-9.4,5.77-3.28,1.96-6.36,3.86-9.63,5.85-2.37,1.43-4.55,2.77-6.93,4.15-28.03,18-57.39,32.37-90.75,37.83.96,2.04,1.74,3.66,2.49,5.3.79,1.74,1.59,3.48,2.33,5.24,8.71,20.8,11.85,42.66,12.03,65,.2,23.44-.09,46.89.1,70.33.2,25.91.35,51.84,1.21,77.73.5,14.93,3.73,29.56,8.19,43.86,7.09,22.75,18.02,43.43,33.87,61.32,5.31,5.99,11.26,11.42,17.01,17.26,1.93,1.71,3.76,3.27,5.7,4.99,2.7,2.16,5.29,4.16,7.99,6.32,5.07,3.66,10.02,7.16,15.09,10.81,6.4,4.16,12.69,8.17,18.97,12.17.17-.25.33-.51.5-.76-6.15-4.78-12.31-9.55-18.56-14.5-5.39-4.94-10.68-9.71-16.05-14.63-1.16-1.33-2.24-2.52-3.42-3.87-2.7-2.95-5.31-5.74-8.01-8.69-10.06-11.85-18.49-24.56-25.8-38.06-16.55-30.57-23.24-63.52-23.41-97.95-.21-42.85-.03-85.7-.09-128.55-.02-17.28-2.19-34.31-6.97-50.94-1.2-4.18-2.71-8.27-4.04-12.29.41-.33.54-.51.7-.55.92-.24,1.86-.44,2.78-.68,21.92-5.65,42.3-14.96,61.86-26.18,2.27-1.3,4.37-2.92,6.75-4.42,2.58-1.35,4.94-2.67,7.5-4.05,3.26-1.79,6.33-3.52,9.6-5.31,3.43-1.7,6.66-3.34,9.9-4.99,16.21-8.25,33.1-14.72,50.81-18.85.05,4.49.05,8.7.05,13.08,6.25-.62,11.98-1.19,17.98-1.74,8.24.03,16.21.03,24.33.03V3.29c3.55-1.04,7.1-2.08,11.24-3.29v56.39c1.99.81,3.47,1.41,5.35,2.16,9.37,3.35,18.55,6.09,27.29,9.84,16.5,7.09,31.14,17.46,45.94,27.48,20.22,13.68,41.4,25.39,65.27,31.5,5.44,1.39,10.94,2.51,16.38,3.75.06.15.14.26.11.32-.25.62-.49,1.25-.77,1.85-8.53,17.7-12.68,36.46-13.13,56.02-.32,14.06-.06,28.13-.15,42.2-.18,27.55-.32,55.11-.7,82.66-.09,6.77-1.06,13.53-1.63,20.33,0,.04-.02-.05.14-.18.39-.76.67-1.37.86-2.01,8.5-28.69,12.85-58.05,13.65-87.91.47-17.59.24-35.2.63-52.79.49-22.02,5.4-42.99,15.78-62.55,1.22-2.3,2.45-4.59,3.77-7.08-.99-.13-1.64-.23-2.3-.29-24.06-2.16-46.78-8.99-67.6-21.12-15.17-8.84-29.67-18.84-44.37-28.46-18.27-11.95-37.56-21.63-58.83-27.01v-23.57c1,.23,1.96.44,2.92.69,27.43,6.93,51.68,20.16,74.24,36.98,12.02,8.96,24.22,17.78,36.94,25.7,25.55,15.9,53.89,22.61,83.76,23.49,1.43.04,2.87.06,4.3.1.18,0,.35.08.99.23-1.15,1.52-2.19,2.92-3.25,4.3-13.59,17.62-23.97,36.79-28.61,58.78-3.18,15.07-3.1,30.22-1.21,45.4,2.38,19.07,5.46,38.06,7.35,57.17,3.92,39.66,2.88,79.06-7.44,117.91-11.6,43.66-34.56,80.33-66.97,111.43-20.04,19.23-42.71,35.03-65.66,50.46-16.53,11.11-32.83,22.5-46.85,36.8-3.2,3.27-6.28,6.66-9.59,10.18-3.03-3.54-5.8-7.19-8.98-10.43-10.39-10.57-20.93-20.98-31.3-31.62.11-.16.09-.13.09-.13M162.69,500.7c-.17-.1-.33-.2-.64-.63-.52-.28-1.04-.56-1.71-1.18-.44-.21-.88-.42-1.32-.63-.07.19-.14.38-.21.57.55.14,1.1.29,1.69.83.57.24,1.15.47,1.78,1.01.17.1.34.19.71.56.31.1.63.2,1.01.39l.07.04s-.17-.1-.39-.34c-.31-.11-.62-.21-1.01-.6M406.31,393.9c-4.89,12.4-10.9,24.24-18.16,35.42-18.66,28.75-43.39,51.4-71.88,69.92-18.66,12.13-38.01,23.23-57.27,34.4-4.31,2.5-6.01,5.09-5.65,10.01.46,6.31.11,12.69.11,18.53,12.55-8.6,24.92-17.38,37.61-25.68,20.58-13.47,41.12-26.94,59.57-43.32,22.54-20.02,41.46-42.87,54.95-69.97,14.7-29.53,22.19-60.99,24.56-93.73,2.16-29.8.16-59.44-4.25-88.95-.1-.65-.35-1.28-.54-1.91-.27.05-.54.1-.81.15.18,2.19.45,4.37.53,6.57,1,27.95.69,55.85-2.87,83.64-2.83,22.09-7.65,43.7-15.91,64.92M332.46,464.22c42.44-32.91,69.48-75.11,77.56-128.7-.85,1.76-1.43,3.63-2.1,5.48-.72,1.98-1.51,3.93-2.29,5.88-9.42,23.67-22.25,45.25-39.17,64.37-17.87,20.19-38.7,36.76-62.14,49.86-15.84,8.85-32.27,16.67-48.51,24.8-1.88.94-2.41,1.94-2.38,3.88.1,6.79.04,13.59.06,20.38,0,.7.15,1.4.26,2.39,27.13-14.86,54.26-29.01,78.72-48.34"/>
    <path class="cls-14" d="M260.92,45.13c21.33,5.13,40.62,14.8,58.88,26.75,14.7,9.62,29.2,19.62,44.37,28.46,20.82,12.13,43.54,18.97,67.6,21.12.66.06,1.31.16,2.3.29-1.33,2.49-2.55,4.78-3.77,7.08-10.38,19.56-15.29,40.53-15.78,62.55-.39,17.59-.16,35.2-.63,52.79-.8,29.87-5.15,59.22-13.65,87.91-.19.64-.47,1.25-.86,2.01-.15.14-.14.14-.14.14.57-6.76,1.53-13.52,1.63-20.29.38-27.55.52-55.11.7-82.66.09-14.07-.17-28.14.15-42.2.45-19.55,4.6-38.32,13.13-56.02.29-.6.53-1.23.77-1.85.02-.06-.05-.17-.11-.32-5.43-1.24-10.94-2.36-16.38-3.75-23.86-6.12-45.04-17.82-65.27-31.5-14.8-10.02-29.44-20.39-45.94-27.48-8.74-3.75-17.91-6.49-27.07-9.81-.12-4.41-.05-8.69.07-13.24Z"/>
    <path class="cls-15" d="M218.63,469.48h21.8v111.27c-1.51-1.21-2.67-2.14-4.03-3.11-.81-1.06-1.22-2.3-2.06-3.04-5.47-4.84-11.03-9.57-16.63-14.78-.04-1.4.01-2.35.01-3.31.01-27.89.01-55.78.07-83.67,0-1.12.54-2.24.83-3.36Z"/>
    <path class="cls-13" d="M243.84,3.06c.21,23.75.21,47.49.21,71.17-8.13,0-16.1,0-24.36-.3-.3-15.73-.3-31.17-.3-47.03-5.9,1.68-11.43,3.24-16.94,4.81-.26-.93-.43-1.56-.61-2.19-.02-4.25-.04-8.5-.08-13.01,11.74-4.08,23.49-7.91,35.26-11.69,2.17-.7,4.4-1.19,6.82-1.76Z"/>
    <path class="cls-7" d="M218.46,469.38c-.12,1.22-.66,2.34-.66,3.46-.06,27.89-.06,55.78-.07,83.67,0,.95-.05,1.91-.11,3.13-5.52-3.64-11.01-7.54-16.61-11.62-.09-9.13-.06-18.08-.03-27.03,0-1.05-.05-2.1-.09-3.66-.07-6.78-.13-13.04-.19-19.3.1-9.07.21-18.14.31-27.21.01-1.03,0-2.05,0-3.12,5.96.55,11.62,1.07,17.45,1.69Z"/>
    <path class="cls-6" d="M201.73,558.69c-.12.01-.25.05-.38.06-.02,0-.05-.13-.08-.2.11-.04.23-.08.38.04.04.15.06.12.07.1Z"/>
    <path class="cls-18" d="M123.67,96.07c-2.18,1.47-4.27,3.09-6.54,4.4-19.56,11.23-39.94,20.53-61.86,26.18-.92.24-1.86.43-2.78.68-.17.04-.29.22-.7.55,1.33,4.02,2.84,8.11,4.04,12.29,4.78,16.64,6.95,33.66,6.97,50.94.06,42.85-.12,85.7.09,128.55.17,34.43,6.86,67.38,23.41,97.95,7.31,13.5,15.75,26.21,25.77,38.29-.73,2.85-1.5,5.32-2.27,7.78-5.66-5.69-11.61-11.12-16.92-17.11-15.85-17.88-26.78-38.56-33.87-61.32-4.46-14.3-7.69-28.93-8.19-43.86-.86-25.9-1-51.82-1.21-77.73-.18-23.44.1-46.89-.1-70.33-.19-22.35-3.33-44.21-12.03-65-.74-1.76-1.53-3.51-2.33-5.24-.75-1.64-1.53-3.25-2.49-5.3,33.37-5.46,62.72-19.82,90.76-37.56.21,5.43.23,10.64.25,15.85Z"/>
    <path class="cls-12" d="M406.24,393.47c8.19-21.01,13.01-42.62,15.84-64.71,3.56-27.79,3.87-55.7,2.87-83.64-.08-2.19-.35-4.38-.53-6.57.27-.05.54-.1.81-.15.18.64.44,1.26.54,1.91,4.41,29.51,6.41,59.15,4.25,88.95-2.37,32.74-9.86,64.2-24.56,93.73-13.49,27.1-32.41,49.96-54.95,69.97-18.45,16.39-39,29.85-59.57,43.32-12.68,8.3-25.05,17.08-37.61,25.68,0-5.84.35-12.21-.11-18.53-.36-4.92,1.34-7.51,5.65-10.01,19.27-11.17,38.61-22.27,57.27-34.4,28.49-18.52,53.22-41.17,71.88-69.92,7.26-11.18,13.27-23.02,18.23-35.63Z"/>
    <path class="cls-21" d="M332.17,464.13c-24.29,19.2-51.43,33.35-78.56,48.21-.11-.99-.26-1.69-.26-2.39-.02-6.79.04-13.59-.06-20.38-.03-1.94.5-2.94,2.38-3.88,16.24-8.13,32.67-15.94,48.51-24.8,23.44-13.1,44.27-29.67,62.14-49.86,16.92-19.12,29.74-40.71,39.17-64.37.78-1.95,1.57-3.9,2.29-5.88.67-1.84,1.25-3.72,2.1-5.48-8.09,53.59-35.13,95.79-77.72,128.83Z"/>
    <path class="cls-17" d="M200.52,497.97c.24,6.32.3,12.58.29,19.09-3.99-2.09-8.12-4.15-11.79-6.84-14.5-10.59-29.4-20.72-43.16-32.22-24.55-20.53-44.61-44.86-57.13-74.68-4.45-10.59-7.98-21.56-11.42-32.66,23.36,59.6,66.42,99.97,123.21,127.3Z"/>
    <path class="cls-10" d="M201.64,62.58c-17.67,4.39-34.55,10.86-50.77,19.12-3.23,1.65-6.47,3.29-9.89,4.72-.2-3.71-.14-7.22-.23-10.71-.05-1.94-.37-3.88-.57-5.82,3.06-1.91,6.03-3.99,9.19-5.72,16.46-9.01,33.76-15.97,52.1-20.76.23,6.56.2,12.86.16,19.17Z"/>
    <path class="cls-19" d="M201.69,62.85c-.01-6.57.02-12.88,0-19.45-.03-4.65-.01-9.03.07-13.65.24.39.42,1.02.68,1.95,5.51-1.56,11.04-3.13,16.94-4.81,0,15.86,0,31.3.03,47-5.7.84-11.43,1.41-17.68,2.03,0-4.38,0-8.59-.05-13.08Z"/>
    <path class="cls-9" d="M139.98,69.95c.4,1.88.72,3.82.77,5.76.1,3.5.04,7,.04,10.77-3.07,2-6.14,3.74-9.43,5.25-.23-3.55-.17-6.88-.27-10.2-.06-1.94-.36-3.88-.55-5.82,3.08-1.9,6.16-3.8,9.44-5.76Z"/>
    <path class="cls-1" d="M130.35,75.8c.38,1.85.69,3.78.74,5.72.1,3.32.04,6.64.07,10.24-2.33,1.6-4.7,2.93-7.27,4.28-.23-5.19-.25-10.4-.27-15.87,2.18-1.6,4.36-2.94,6.73-4.37Z"/>
    <path class="cls-20" d="M123.61,468.39c5.29,4.77,10.58,9.54,15.97,14.67-.27,1.15-.65,1.95-1.03,2.74-4.95-3.5-9.91-7-14.94-10.93-.05-2.45-.03-4.47,0-6.48Z"/>
    <path class="cls-2" d="M109.89,463.83c.68-2.61,1.45-5.07,2.26-7.76,2.65,2.56,5.26,5.35,7.85,8.46-1.52,1.59-3.02,2.86-4.52,4.13-1.83-1.56-3.67-3.12-5.6-4.83Z"/>
    <path class="cls-11" d="M138.67,485.95c.26-.94.64-1.74,1.01-2.73,6.15,4.58,12.3,9.36,18.46,14.14-.17.25-.33.51-.5.76-6.28-4.01-12.57-8.02-18.97-12.17Z"/>
    <path class="cls-16" d="M115.59,468.82c1.39-1.43,2.89-2.7,4.5-4.13,1.19,1.03,2.27,2.21,3.44,3.54.06,2.17.03,4.19-.03,6.48-2.62-1.73-5.21-3.73-7.91-5.89Z"/>
    <path class="cls-11" d="M160.37,499.01c.52.28,1.04.56,1.64,1,.08.16.1.14.1.14-.57-.24-1.15-.47-1.73-.91-.01-.2,0-.22,0-.22Z"/>
    <path class="cls-11" d="M160.35,499.04c-.56-.14-1.11-.28-1.66-.43.07-.19.14-.38.21-.57.44.21.88.42,1.39.8.08.17.06.19.06.2Z"/>
    <path class="cls-11" d="M163.81,501.3c-.31-.1-.63-.2-1.05-.43-.11-.13-.12-.11-.12-.11.31.11.62.21,1.04.43.12.12.13.1.13.1Z"/>
    <path class="cls-11" d="M163.8,501.32s.16.1.16.1c0,0-.07-.04-.11-.08-.04-.04-.04-.03-.05-.02Z"/>
    <path class="cls-11" d="M162.07,500.18c.16.11.32.21.53.45.04.14.06.12.06.12-.16-.1-.34-.2-.54-.44-.03-.15-.05-.13-.06-.12Z"/>
    <path class="cls-14" d="M399.23,334.23s.01.08.02.04-.01-.04-.02-.04Z"/>
    <path class="cls-6" d="M157.51,116.6c-.12.01-.25.04-.37.04-.02,0-.05-.13-.07-.19.11-.04.22-.07.38.04.04.14.06.12.06.11Z"/>
    <text class="cls-4" transform="translate(87.79 310.43) scale(.8 1)"><tspan x="0" y="0">G</tspan><tspan class="cls-8" x="94.27" y="0">R</tspan><tspan class="cls-5" x="175.7" y="0">CG</tspan></text>
    <g>
      <path class="cls-3" d="M112.93,195.73c-1.18.71-2.4,1.19-3.66,1.44-1.26.26-2.52.27-3.76.03-1.25-.24-2.44-.74-3.57-1.51-1.13-.77-2.15-1.84-3.05-3.2-1.18-1.79-1.8-3.57-1.85-5.35-.05-1.78.4-3.45,1.35-5.01.95-1.55,2.31-2.87,4.07-3.92,2.43-1.46,4.67-2.09,6.65-1.92,1.98.17,3.7,1.02,5.17,2.52-1.24.92-1.85,1.38-3.08,2.32-.94-.8-2.01-1.26-3.2-1.38-1.19-.11-2.45.23-3.75.99-1.31.77-2.26,1.68-2.81,2.71-.55,1.03-.75,2.14-.61,3.32.14,1.18.6,2.37,1.37,3.58.77,1.21,1.64,2.13,2.62,2.77.97.63,2.03.95,3.16.94,1.13,0,2.32-.37,3.56-1.1.93-.55,1.66-1.18,2.18-1.91.52-.73.82-1.54.9-2.45.08-.91-.07-1.9-.47-2.97-1.34.76-2.01,1.14-3.35,1.92-.52-.89-.78-1.33-1.3-2.22,2.71-1.58,4.07-2.35,6.81-3.85.09.12.2.3.35.54.14.24.23.39.25.44.88,1.63,1.31,3.27,1.3,4.91,0,1.65-.46,3.18-1.34,4.62-.88,1.44-2.19,2.67-3.96,3.73Z"/>
      <path class="cls-3" d="M123.86,189.11c-3.66-6.93-5.48-10.4-9.14-17.34,3.34-1.76,5.02-2.61,8.41-4.24.2-.1.46-.21.78-.35.32-.14.62-.25.91-.33,1.26-.41,2.4-.52,3.42-.34,1.02.17,1.89.58,2.63,1.22.73.64,1.32,1.46,1.76,2.44.65,1.46.79,2.9.45,4.31-.34,1.41-1.29,2.63-2.84,3.66-.54.31-.81.46-1.34.77-2.01.96-3.01,1.46-5,2.47,1.24,2.44,1.86,3.66,3.1,6.1-1.26.64-1.88.96-3.13,1.62ZM122.51,178.65c1.87-.95,2.81-1.41,4.69-2.32.18-.09.38-.19.6-.32.22-.13.42-.26.58-.4.49-.38.82-.8.99-1.27.17-.46.23-.92.18-1.38-.05-.46-.16-.88-.34-1.25-.18-.38-.42-.74-.74-1.07-.32-.34-.72-.58-1.19-.75-.47-.16-1.02-.17-1.64-.03-.22.04-.45.12-.69.22s-.45.2-.64.29c-1.93.93-2.9,1.41-4.82,2.39,1.2,2.36,1.8,3.54,3,5.9ZM134.68,183.75c-2.84-2.2-4.29-3.28-7.22-5.4,1.2-.91,1.81-1.36,3.02-2.25,3.18,2.36,4.74,3.56,7.81,6.01-1.45.64-2.17.97-3.62,1.64Z"/>
      <path class="cls-3" d="M141.23,180.83c-3.08-7.21-4.62-10.81-7.7-18.02,5.38-2.3,8.09-3.37,13.56-5.35.42,1.16.63,1.74,1.05,2.89-4,1.45-5.99,2.22-9.95,3.84.73,1.79,1.1,2.68,1.83,4.47,3.2-1.31,4.81-1.94,8.05-3.14.43,1.15.64,1.73,1.07,2.88-3.2,1.18-4.79,1.8-7.95,3.1.84,2.05,1.26,3.07,2.1,5.12,3.74-1.54,5.63-2.26,9.42-3.63.42,1.16.63,1.74,1.05,2.89-5.05,1.83-7.56,2.81-12.52,4.94ZM133.82,160.39c.93-2.25,1.41-3.38,2.41-5.63,1.2-.48,1.81-.72,3.02-1.19,2.25.96,3.37,1.46,5.58,2.47-1.33.49-2,.74-3.32,1.25-1.23-.57-1.84-.85-3.08-1.4-.53,1.25-.8,1.88-1.31,3.13-1.32.54-1.98.81-3.29,1.36Z"/>
      <path class="cls-3" d="M157.02,174.74c-2.56-7.41-3.84-11.11-6.4-18.52,1.28-.44,1.92-.66,3.21-1.08,4.69,4.3,6.97,6.5,11.36,10.98,1.23-6.16,1.93-9.24,3.5-15.4,1.3-.34,1.96-.51,3.26-.84,1.91,7.6,2.86,11.41,4.77,19.01-1.25.31-1.88.47-3.13.81-1.29-4.86-1.93-7.28-3.22-12.14-1.29,5.54-1.87,8.31-2.89,13.85-.53.16-.79.23-1.32.39-3.88-4.08-5.87-6.09-9.99-10.02,1.57,4.77,2.36,7.16,3.94,11.93-1.24.41-1.85.62-3.09,1.04Z"/>
      <path class="cls-3" d="M180.9,167.87c-1.77-7.64-2.65-11.45-4.42-19.09,1.46-.34,2.19-.5,3.65-.82,1.66,7.66,2.49,11.49,4.14,19.15-1.35.29-2.02.44-3.37.75Z"/>
      <path class="cls-3" d="M197.1,165.13c-2.03.32-3.83.2-5.43-.38-1.6-.58-2.95-1.54-4.03-2.89-1.08-1.35-1.84-3.01-2.24-4.99-.4-1.98-.35-3.81.17-5.47.52-1.67,1.49-3.07,2.89-4.2,1.4-1.13,3.22-1.88,5.42-2.23s4.16-.2,5.85.43,3.04,1.67,4.05,3.09c1.01,1.42,1.63,3.14,1.86,5.15.24,2.01.04,3.82-.57,5.44-.61,1.62-1.59,2.95-2.93,3.99-1.35,1.05-3.02,1.72-5.05,2.05ZM196.61,162.08c1.38-.21,2.48-.67,3.32-1.39.84-.72,1.42-1.63,1.75-2.76.32-1.12.4-2.4.21-3.82-.19-1.42-.59-2.62-1.22-3.61-.63-.98-1.47-1.7-2.52-2.14-1.06-.44-2.32-.57-3.78-.35-1.46.22-2.63.72-3.49,1.46-.86.75-1.43,1.7-1.72,2.84-.29,1.14-.3,2.42-.03,3.83.26,1.41.72,2.59,1.38,3.54.65.95,1.49,1.64,2.51,2.06,1.02.42,2.22.53,3.6.32Z"/>
      <path class="cls-3" d="M215.3,162.54c-.63-7.81-.95-11.72-1.58-19.53,5.72-.46,8.59-.61,14.32-.75.03,1.23.05,1.84.08,3.07-4.2.1-6.3.2-10.49.47.13,1.93.19,2.89.32,4.82,3.4-.22,5.1-.31,8.49-.41.04,1.23.06,1.84.1,3.07-3.36.11-5.04.19-8.39.41.15,2.21.22,3.32.37,5.53,3.97-.26,5.96-.35,9.93-.45.03,1.23.05,1.84.08,3.07-5.3.13-7.94.27-13.23.69Z"/>
      <path class="cls-3" d="M239.34,162.23c-1.5-.03-2.84-.3-4.04-.8-1.2-.5-2.2-1.21-2.99-2.14-.79-.92-1.31-2.02-1.54-3.3,1.46-.23,2.19-.34,3.65-.54.31,1.16.95,2.06,1.9,2.7.95.64,2.05.97,3.3,1,.74.02,1.44-.07,2.1-.27.66-.2,1.2-.5,1.63-.9.42-.4.65-.91.68-1.51.01-.27-.03-.53-.12-.76-.09-.23-.22-.45-.41-.64-.18-.19-.42-.36-.71-.52-.29-.16-.63-.3-1.02-.42-2.17-.66-3.26-.99-5.46-1.6-.47-.13-.98-.3-1.53-.52-.55-.21-1.07-.51-1.56-.88-.49-.37-.9-.85-1.22-1.43-.32-.58-.49-1.3-.5-2.17-.01-1.26.33-2.33,1.04-3.19.71-.86,1.68-1.51,2.91-1.93,1.23-.42,2.6-.61,4.1-.58,1.52.04,2.88.31,4.05.8,1.17.49,2.14,1.19,2.89,2.08.75.89,1.26,1.95,1.51,3.17-1.58.16-2.36.25-3.93.43-.13-.7-.42-1.29-.86-1.8s-.99-.89-1.65-1.16c-.66-.27-1.37-.43-2.12-.46-.73-.03-1.41.06-2.04.26-.63.2-1.13.49-1.51.86-.38.38-.57.82-.57,1.33,0,.48.16.87.48,1.18.32.31.71.55,1.19.73.47.18.95.34,1.44.46,1.54.42,2.3.63,3.83,1.07.52.14,1.11.34,1.75.58.65.24,1.26.57,1.85.99.58.42,1.05.96,1.41,1.61.35.65.5,1.47.45,2.45-.06,1.01-.33,1.89-.82,2.63-.49.74-1.12,1.35-1.89,1.82-.78.47-1.65.82-2.62,1.04-.97.22-1.98.32-3.03.3Z"/>
      <path class="cls-3" d="M250.48,162.32c.53-7.82.8-11.73,1.33-19.55,3.66.25,5.49.41,9.15.79.21.02.49.06.83.11.34.05.64.11.93.19,1.26.31,2.27.81,3.03,1.49.76.68,1.28,1.48,1.56,2.41.28.93.35,1.93.21,3-.14,1.06-.47,2-.98,2.83-.51.83-1.2,1.47-2.06,1.95s-1.91.73-3.13.77c-.28,0-.58,0-.91-.02-.33-.02-.59-.04-.78-.06-2.07-.22-3.1-.31-5.17-.48-.23,2.73-.34,4.09-.56,6.82-1.37-.11-2.05-.16-3.42-.26ZM254.72,152.71c2.04.17,3.05.26,5.09.47.2.02.42.03.67.04.25,0,.48,0,.69-.04.61-.07,1.1-.26,1.48-.56.38-.3.67-.66.86-1.08.19-.42.32-.83.37-1.24.05-.41.03-.85-.07-1.3-.09-.45-.29-.87-.6-1.26-.31-.38-.76-.68-1.35-.88-.21-.08-.44-.14-.69-.18-.25-.04-.48-.07-.68-.09-2.09-.22-3.13-.31-5.22-.49-.22,2.64-.33,3.95-.55,6.59Z"/>
      <path class="cls-3" d="M277.09,166.07c-2.02-.37-3.68-1.08-5-2.16-1.32-1.08-2.26-2.43-2.83-4.06-.57-1.63-.73-3.45-.44-5.45.28-2,.94-3.71,1.99-5.1,1.05-1.4,2.42-2.4,4.12-3,1.7-.6,3.66-.7,5.85-.3,2.2.4,4,1.2,5.38,2.36,1.38,1.16,2.32,2.59,2.8,4.27.49,1.68.49,3.5.04,5.48-.45,1.97-1.24,3.62-2.36,4.94-1.12,1.32-2.48,2.25-4.11,2.79-1.62.54-3.43.62-5.45.25ZM277.65,163.03c1.37.26,2.57.2,3.6-.2,1.03-.4,1.89-1.07,2.57-2.02.68-.95,1.18-2.13,1.47-3.53.3-1.4.32-2.67.05-3.81-.26-1.13-.82-2.09-1.67-2.86-.85-.77-2.01-1.31-3.46-1.59-1.45-.28-2.72-.2-3.78.22s-1.92,1.12-2.57,2.1c-.65.98-1.08,2.18-1.31,3.6-.22,1.42-.18,2.68.12,3.8.3,1.12.86,2.04,1.68,2.78.82.74,1.92,1.24,3.29,1.5Z"/>
      <path class="cls-3" d="M289.63,168.3c1.83-7.62,2.74-11.43,4.57-19.06,3.59.86,5.38,1.32,8.94,2.32.21.06.48.14.8.25.32.11.62.22.89.34,1.2.52,2.12,1.19,2.76,1.98s1.02,1.68,1.15,2.65c.13.96.03,1.96-.29,2.99-.47,1.53-1.31,2.7-2.49,3.54-1.18.84-2.68,1.13-4.49.89-.6-.12-.9-.18-1.5-.3-2.11-.59-3.17-.87-5.29-1.41-.68,2.65-1.02,3.98-1.69,6.63-1.34-.34-2.01-.51-3.35-.83ZM295.43,159.53c1.99.51,2.99.77,4.97,1.32.19.05.41.11.66.16s.48.08.69.08c.61.03,1.13-.07,1.56-.3.43-.24.77-.54,1.04-.92.26-.38.45-.77.57-1.17.12-.4.17-.83.15-1.3-.02-.46-.15-.91-.39-1.34-.24-.43-.64-.79-1.19-1.09-.19-.11-.41-.21-.65-.29-.24-.08-.46-.15-.66-.21-2.04-.57-3.06-.84-5.1-1.36-.65,2.56-.98,3.85-1.64,6.41ZM301.09,171.36c-.67-3.52-1.03-5.28-1.81-8.8,1.48.1,2.22.16,3.71.28.81,3.86,1.18,5.8,1.86,9.66-1.5-.47-2.25-.69-3.76-1.14Z"/>
      <path class="cls-3" d="M312.59,175.05c2.18-6.24,3.27-9.36,5.46-15.6-2.72-.95-4.08-1.4-6.81-2.28.37-1.17.56-1.76.93-2.93,6.97,2.22,10.42,3.45,17.26,6.18-.46,1.14-.68,1.71-1.14,2.86-2.68-1.07-4.03-1.59-6.73-2.58-2.27,6.21-3.41,9.31-5.68,15.51-1.31-.48-1.96-.71-3.28-1.17Z"/>
      <path class="cls-3" d="M324.58,179.61c2.98-7.25,4.48-10.87,7.46-18.12,1.4.58,2.1.87,3.49,1.47-3.09,7.2-4.64,10.81-7.73,18.01-1.29-.55-1.93-.82-3.22-1.36Z"/>
      <path class="cls-3" d="M336.07,184.71c.97-8.22,1.36-12.36,1.91-20.68,1.43.63,2.14.95,3.56,1.61-.57,6.97-.92,10.43-1.79,17.32,4.93-4.9,7.46-7.3,12.64-12.01,1.4.72,2.09,1.09,3.48,1.84-6.25,5.54-9.29,8.38-15.18,14.19-1.84-.93-2.77-1.38-4.63-2.26Z"/>
      <path class="cls-3" d="M355.58,195.61c-1.82-1.09-3.17-2.36-4.07-3.85-.9-1.49-1.34-3.1-1.33-4.84.01-1.74.49-3.5,1.45-5.28.96-1.78,2.18-3.15,3.67-4.08,1.49-.93,3.16-1.38,5-1.32,1.84.06,3.76.67,5.74,1.85,1.98,1.18,3.44,2.59,4.38,4.19.94,1.6,1.35,3.29,1.24,5.05-.11,1.76-.73,3.48-1.84,5.17-1.11,1.69-2.44,2.94-3.97,3.78-1.53.83-3.17,1.2-4.92,1.11-1.75-.09-3.52-.68-5.35-1.77ZM357.16,192.95c1.23.75,2.41,1.13,3.54,1.13,1.13,0,2.19-.31,3.17-.95.99-.64,1.87-1.57,2.63-2.78.77-1.21,1.22-2.4,1.36-3.56.13-1.16-.07-2.27-.63-3.3-.55-1.04-1.49-1.97-2.79-2.76-1.3-.79-2.55-1.18-3.72-1.17-1.17,0-2.23.36-3.2,1.04-.96.68-1.79,1.66-2.49,2.91-.7,1.25-1.1,2.46-1.2,3.61-.1,1.16.12,2.23.66,3.22.54.99,1.42,1.86,2.65,2.61Z"/>
    </g>
    <g>
      <path class="cls-3" d="M127.25,378.88c-2.02-1.18-3.52-2.6-4.48-4.21-.96-1.61-1.39-3.31-1.29-5.07.1-1.77.71-3.49,1.82-5.18,1.11-1.69,2.44-2.94,3.98-3.77,1.53-.83,3.17-1.2,4.92-1.12,1.75.08,3.52.66,5.35,1.73,2.11,1.23,3.6,2.71,4.5,4.48.9,1.77,1.21,3.66.93,5.66-1.47-.35-2.2-.54-3.68-.92.24-1.33.09-2.55-.44-3.67-.53-1.12-1.48-2.08-2.87-2.88-1.25-.73-2.43-1.1-3.56-1.1-1.13,0-2.19.32-3.17.96-.98.64-1.87,1.57-2.64,2.77-.77,1.21-1.22,2.41-1.35,3.58-.13,1.17.09,2.29.67,3.33.58,1.04,1.54,1.96,2.87,2.75,1.48.87,2.88,1.24,4.17,1.13,1.29-.11,2.43-.63,3.42-1.53,1.16,1.05,1.75,1.57,2.93,2.59-1.5,1.37-3.31,2.15-5.41,2.3-2.1.14-4.34-.45-6.67-1.82Z"/>
      <path class="cls-3" d="M137.78,384.18c6.18-5.64,9.16-8.55,14.89-14.52,1.86.88,2.8,1.3,4.68,2.13-.73,8.24-.97,12.39-1.18,20.75-1.47-.59-2.2-.89-3.66-1.5.3-7.5.55-11.24,1.27-18.64.29.13.43.2.72.33-5.08,5.42-7.71,8.07-13.15,13.24-1.43-.7-2.15-1.06-3.57-1.79ZM143.28,382.19c.54-1.1.81-1.65,1.34-2.75,4.22,2.06,6.35,3.03,10.65,4.84-.47,1.13-.71,1.69-1.19,2.82-4.36-1.84-6.53-2.82-10.81-4.91Z"/>
      <path class="cls-3" d="M158.84,393.59c2.8-7.32,4.2-10.98,7.01-18.3,1.17.45,1.76.67,2.94,1.1.8,6.2,1.31,9.31,2.53,15.54,4.63-4.34,6.86-6.57,11.13-11.13,1.2.34,1.8.5,3.01.82-2.01,7.58-3.02,11.36-5.03,18.94-1.37-.36-2.06-.55-3.43-.94,1.37-4.83,2.06-7.25,3.43-12.08-3.9,4.12-5.93,6.13-10.13,10.07-.58-.19-.87-.28-1.45-.47-1.1-5.65-1.56-8.47-2.33-14.09-1.72,4.72-2.58,7.08-4.29,11.8-1.35-.49-2.03-.74-3.37-1.26Z"/>
      <path class="cls-3" d="M184.7,401.65c1.86-7.62,2.78-11.42,4.64-19.04,3.32.81,4.98,1.17,8.32,1.83.2.04.45.09.75.17.31.07.59.16.84.25,1.14.39,2.04.93,2.71,1.64.67.71,1.13,1.52,1.36,2.46.23.93.27,1.93.1,3-.17,1.06-.52,1.99-1.06,2.8s-1.26,1.43-2.17,1.86c-.91.43-2,.62-3.27.56-.29-.02-.6-.05-.94-.1-.34-.05-.61-.09-.81-.13-2.12-.42-3.17-.64-5.28-1.11-.6,2.67-.9,4.01-1.5,6.68-1.48-.33-2.22-.51-3.7-.87ZM190.57,392.85c2.02.45,3.03.67,5.06,1.07.2.04.42.07.67.1.25.03.48.04.7.02.62-.02,1.12-.17,1.52-.45.4-.28.71-.62.93-1.02.22-.4.36-.81.44-1.22.07-.41.08-.85.02-1.3-.06-.46-.23-.89-.49-1.29-.27-.4-.67-.72-1.22-.96-.19-.09-.4-.17-.64-.23-.23-.06-.45-.11-.64-.15-1.96-.39-2.94-.6-4.89-1.03-.58,2.58-.87,3.87-1.45,6.45Z"/>
      <path class="cls-3" d="M213.89,407.05c-2.25-.23-4.14-.88-5.62-1.94-1.49-1.05-2.53-2.41-3.15-4.05-.62-1.64-.76-3.46-.46-5.46.3-2,.98-3.69,1.99-5.1,1.02-1.4,2.31-2.43,3.88-3.09,1.57-.66,3.36-.88,5.4-.68,2.04.2,3.75.78,5.16,1.74,1.41.96,2.47,2.22,3.19,3.8.72,1.58,1.04,3.37.94,5.39-.1,2.02-.6,3.78-1.53,5.26-.93,1.48-2.23,2.61-3.9,3.34-1.67.74-3.65,1.01-5.9.78ZM214.2,403.98c1.48.16,2.76-.02,3.8-.53,1.04-.51,1.84-1.28,2.41-2.31.57-1.03.9-2.27.99-3.7.1-1.43-.06-2.69-.46-3.78-.4-1.09-1.04-1.96-1.92-2.63-.88-.66-2.02-1.07-3.4-1.23-1.38-.15-2.57.01-3.57.49-.99.48-1.79,1.21-2.4,2.21-.61,1-1.01,2.21-1.2,3.63-.19,1.42-.11,2.69.24,3.8.35,1.11.98,2.02,1.9,2.72.92.7,2.13,1.15,3.62,1.31Z"/>
      <path class="cls-3" d="M243.47,407.97c-1.47.06-2.85-.13-4.14-.56-1.29-.43-2.41-1.08-3.37-1.94-.96-.87-1.7-1.94-2.22-3.21s-.76-2.72-.75-4.36c.02-2.14.48-3.96,1.34-5.48.86-1.52,2.02-2.68,3.46-3.51,1.45-.83,3.07-1.27,4.89-1.34,2.52-.1,4.54.34,6.1,1.36,1.56,1.01,2.7,2.5,3.41,4.47-1.42.33-2.14.49-3.57.8-.48-1.13-1.19-2.02-2.13-2.66-.94-.64-2.1-.92-3.48-.88-1.39.05-2.55.35-3.46.96s-1.61,1.45-2.07,2.52c-.46,1.08-.7,2.33-.68,3.76.01,1.43.26,2.68.76,3.73.5,1.05,1.25,1.87,2.25,2.43,1.01.57,2.27.84,3.76.8,1.12-.03,2.1-.26,2.93-.67.82-.41,1.48-1.01,1.96-1.79.48-.78.77-1.74.88-2.87-1.53.1-2.3.15-3.83.23-.05-1.03-.08-1.54-.13-2.57,3.04-.15,4.56-.25,7.6-.52.03.14.07.35.1.63.03.28.05.45.06.5.16,1.84-.1,3.52-.8,5.02-.71,1.5-1.81,2.72-3.32,3.63-1.51.92-3.37,1.43-5.56,1.51Z"/>
      <path class="cls-3" d="M257.07,406.61c-.8-7.8-1.2-11.7-2-19.49,3.38-.35,5.06-.55,8.43-1.05.2-.03.45-.06.77-.09.31-.03.6-.05.87-.04,1.2-.01,2.24.2,3.1.64.87.44,1.57,1.06,2.1,1.86.53.8.9,1.73,1.1,2.8.29,1.57.1,3-.58,4.29-.68,1.29-1.93,2.22-3.73,2.78-.61.14-.92.22-1.53.36-2.23.33-3.35.48-5.59.75.33,2.72.49,4.08.82,6.8-1.5.18-2.26.26-3.76.42ZM259.65,396.35c2.05-.25,3.07-.38,5.11-.68.2-.03.42-.07.66-.13.24-.05.47-.13.67-.21.57-.23,1-.54,1.29-.93.29-.39.46-.82.53-1.27.07-.45.07-.89,0-1.3-.07-.41-.21-.82-.42-1.23-.21-.41-.51-.76-.9-1.05-.38-.29-.87-.45-1.47-.5-.21-.02-.43-.02-.68,0-.24.02-.46.05-.65.08-1.97.29-2.96.42-4.94.66.32,2.63.47,3.94.79,6.57ZM269.95,404.89c-2.28-2.86-3.39-4.3-5.54-7.22,1.43-.5,2.14-.76,3.55-1.28,2.41,3.14,3.66,4.69,6.22,7.76-1.69.31-2.54.46-4.23.74Z"/>
      <path class="cls-3" d="M276.04,403.8c1.31-8.24,1.84-12.36,2.62-20.58,1.97-.45,2.96-.69,4.92-1.19,4.47,6.95,6.83,10.37,11.8,17.08-1.51.44-2.26.65-3.78,1.07-4.37-6.1-6.45-9.2-10.42-15.48.3-.07.46-.11.76-.18-.62,7.39-1.03,11.1-2.08,18.51-1.53.33-2.3.48-3.83.78ZM279.06,398.85c-.26-1.2-.38-1.8-.64-2.99,4.5-.96,6.74-1.5,11.2-2.72.32,1.18.48,1.77.81,2.95-4.52,1.23-6.8,1.78-11.36,2.76Z"/>
      <path class="cls-3" d="M298.1,398.29c-2.3-7.49-3.45-11.24-5.76-18.73,1.34-.41,2.01-.62,3.35-1.06,5.38,4.05,8.19,5.99,14.03,9.67-1.98-5.16-2.97-7.74-4.94-12.9,1.32-.51,1.98-.76,3.29-1.29,2.94,7.27,4.41,10.9,7.34,18.17-1.44.58-2.17.87-3.62,1.43-5.95-3.64-8.81-5.56-14.3-9.58,1.72,5.25,2.58,7.88,4.3,13.13-1.47.48-2.21.72-3.69,1.17Z"/>
      <path class="cls-3" d="M319.54,390.42c-3.09-7.2-4.63-10.81-7.72-18.01,2.45-1.05,3.67-1.6,6.09-2.74.16-.07.47-.22.95-.43.47-.22.94-.41,1.4-.57,1.58-.55,3.09-.69,4.54-.42,1.45.27,2.77.87,3.97,1.82,1.2.95,2.19,2.15,2.98,3.61.79,1.46,1.23,2.96,1.32,4.49.09,1.53-.22,3-.93,4.38-.71,1.38-1.85,2.57-3.41,3.55-.45.28-.93.55-1.45.8-.52.26-.86.43-1.04.51-2.67,1.25-4.01,1.86-6.7,3.01ZM321.86,386.03c1.23-.56,1.85-.84,3.07-1.41.29-.13.65-.31,1.08-.54.43-.23.81-.45,1.12-.68.89-.62,1.49-1.38,1.8-2.27.31-.88.39-1.82.25-2.79-.14-.98-.45-1.92-.92-2.83-.48-.94-1.08-1.76-1.78-2.45s-1.48-1.17-2.34-1.45c-.86-.28-1.77-.28-2.73,0-.35.09-.74.23-1.16.41-.42.19-.76.34-1.03.47-1.15.54-1.72.8-2.88,1.32,2.21,4.89,3.31,7.34,5.51,12.23Z"/>
      <path class="cls-3" d="M339.74,380.47c-3.83-6.84-5.74-10.26-9.57-17.1,4.77-2.67,7.12-4.1,11.74-7.13.68,1.03,1.01,1.54,1.69,2.57-3.48,2.28-5.24,3.38-8.8,5.46.97,1.67,1.46,2.5,2.44,4.17,3.01-1.76,4.51-2.68,7.46-4.58.67,1.03,1,1.55,1.67,2.59-3,1.93-4.52,2.86-7.58,4.65,1.12,1.91,1.68,2.87,2.79,4.78,3.81-2.22,5.69-3.39,9.4-5.83.68,1.03,1.01,1.54,1.69,2.57-5.09,3.34-7.67,4.91-12.93,7.85Z"/>
    </g>
    <path class="cls-14" d="M371.51,327.86c-.09-.95-59.97,7.61-147.32,7.91-74.79.26-125.05-5.68-125.11-4.85-.07.91,60.73,9.82,138.13,8.86,75.94-.95,134.38-10.98,134.29-11.92Z"/>
  </g>
</svg>